<?xml version="1.0" standalone="no"?>
<!DOCTYPE svg PUBLIC "-//W3C//DTD SVG 20010904//EN"
 "http://www.w3.org/TR/2001/REC-SVG-20010904/DTD/svg10.dtd">
<svg version="1.0" xmlns="http://www.w3.org/2000/svg"
 width="2500.000000pt" height="2500.000000pt" viewBox="0 0 2500.000000 2500.000000"
 preserveAspectRatio="xMidYMid meet">

<g transform="translate(0.000000,2500.000000) scale(0.100000,-0.100000)"
fill="#000000" stroke="none">
<path d="M0 12500 l0 -12500 12498 2 12497 3 3 12498 2 12497 -12500 0 -12500
0 0 -12500z m24960 10048 c1 -15842 0 -22502 -3 -22505 -3 -3 -7758 -4 -22504
-3 l-2423 0 0 12465 0 12465 12465 0 12465 0 0 -2422z"/>
<path d="M12035 17619 c-1025 -79 -1963 -461 -2765 -1129 -159 -133 -407 -375
-568 -555 -481 -538 -843 -1158 -1055 -1810 -114 -347 -177 -637 -224 -1032
-26 -214 -26 -918 0 -1148 21 -191 52 -393 60 -402 4 -3 98 38 209 92 438 212
789 363 1160 499 44 16 47 20 41 44 -12 46 -8 520 6 647 82 800 361 1484 845
2075 102 125 445 465 564 559 473 373 1041 612 1687 708 172 26 745 25 920 0
684 -101 1183 -314 1700 -725 209 -167 554 -524 722 -747 365 -486 593 -1051
678 -1674 19 -142 36 -462 30 -561 -3 -41 -7 -136 -10 -210 -25 -606 -200
-1188 -513 -1708 l-80 -132 112 -81 c283 -207 644 -432 875 -549 118 -59 283
-130 302 -130 8 0 21 12 30 28 9 15 53 87 98 161 350 577 575 1259 651 1971
33 311 36 873 6 1170 -90 887 -351 1646 -803 2335 -192 292 -375 516 -648 794
-914 930 -1953 1419 -3215 1511 -158 12 -657 11 -815 -1z"/>
<path d="M10300 11749 c-566 -38 -1056 -173 -1795 -497 -290 -127 -855 -398
-855 -411 0 -26 127 -361 202 -531 361 -822 977 -1578 1698 -2084 704 -495
1459 -779 2345 -883 218 -25 873 -26 1100 0 478 54 884 155 1340 333 181 71
563 260 734 363 73 45 137 81 142 81 4 0 75 -37 156 -82 399 -221 845 -396
1243 -488 284 -65 477 -90 778 -97 l242 -6 0 692 0 691 -132 0 c-532 0 -939
104 -1443 369 -371 195 -696 414 -1400 940 -983 736 -1360 970 -1947 1208
-783 316 -1610 455 -2408 402z m590 -1283 c1023 -95 1998 -529 2881 -1282 82
-70 149 -130 149 -134 0 -13 -313 -125 -470 -169 -175 -49 -374 -93 -530 -117
-163 -25 -598 -25 -800 -1 -590 73 -1096 264 -1605 608 -327 221 -649 527
-898 857 -42 55 -77 103 -77 105 0 6 208 63 295 81 65 14 330 51 420 59 109
10 496 5 635 -7z"/>
</g>
</svg>
